<svg width="450" height="450" viewBox="0 0 450 450" fill="none" xmlns="http://www.w3.org/2000/svg">
<g clip-path="url(#clip0_205_2)">
<g filter="url(#filter0_d_205_2)">
<path d="M425.355 209.183L241.323 169.107C231.57 166.983 217.152 170.494 209.119 176.95L45.4903 308.442C37.4576 314.897 38.8518 321.852 48.6043 323.976L232.638 364.052C242.39 366.176 256.808 362.664 264.841 356.21L428.469 224.717C436.502 218.262 435.108 211.307 425.355 209.183Z" fill="#007ACC"/>
</g>
<g filter="url(#filter1_d_205_2)">
<path d="M411.911 171.818L227.878 131.741C218.125 129.617 203.707 133.129 195.674 139.584L32.0456 271.076C24.0128 277.531 25.4069 284.486 35.1595 286.61L219.193 326.686C228.945 328.81 243.363 325.299 251.396 318.843L415.025 187.351C423.058 180.896 421.663 173.942 411.911 171.818Z" fill="#454545"/>
</g>
<g filter="url(#filter2_d_205_2)">
<path d="M402.085 126.696L218.051 86.6197C208.299 84.4958 193.881 88.007 185.848 94.4625L22.2195 225.955C14.1866 232.41 15.5807 239.365 25.3334 241.488L209.366 281.565C219.119 283.689 233.537 280.177 241.57 273.722L405.198 142.23C413.231 135.775 411.837 128.82 402.085 126.696Z" fill="#007ACC"/>
</g>
<path d="M348.357 159.581L351.52 164.208C351.491 164.563 351.379 165.011 351.185 165.553C350.992 166.085 350.682 166.662 350.255 167.283C349.829 167.905 349.248 168.52 348.513 169.13C347.835 169.694 347.139 170.087 346.424 170.308C345.706 170.524 344.99 170.565 344.274 170.431C343.561 170.289 342.865 169.969 342.188 169.472C341.512 168.966 340.874 168.274 340.275 167.397L339.846 166.771C339.247 165.894 338.822 165.026 338.572 164.166C338.321 163.306 338.232 162.484 338.303 161.696C338.375 160.901 338.593 160.162 338.956 159.48C339.323 158.795 339.826 158.188 340.462 157.659C341.402 156.878 342.28 156.408 343.096 156.248C343.908 156.083 344.663 156.163 345.362 156.488C346.058 156.808 346.696 157.318 347.276 158.016L344.911 159.981C344.61 159.648 344.306 159.407 343.999 159.259C343.692 159.1 343.374 159.053 343.044 159.118C342.71 159.177 342.353 159.363 341.974 159.678C341.68 159.923 341.458 160.216 341.31 160.558C341.166 160.895 341.107 161.276 341.133 161.699C341.155 162.117 341.264 162.577 341.459 163.078C341.659 163.575 341.954 164.107 342.342 164.674L342.78 165.316C343.165 165.879 343.544 166.336 343.917 166.689C344.295 167.038 344.668 167.283 345.035 167.423C345.403 167.553 345.772 167.578 346.142 167.497C346.514 167.407 346.887 167.206 347.261 166.896C347.523 166.678 347.732 166.468 347.887 166.266C348.039 166.059 348.151 165.869 348.224 165.696C348.297 165.514 348.343 165.362 348.363 165.24L347.168 163.492L345.455 164.914L344.18 163.05L348.357 159.581ZM351.158 149.03L358.859 160.295L356.396 162.341L348.694 151.076L351.158 149.03ZM354.232 146.476L355.666 148.573L347.123 155.668L345.69 153.571L354.232 146.476ZM366.3 154.115L364.033 155.998L362.619 153.897L364.872 152.026C365.34 151.637 365.65 151.185 365.804 150.669C365.962 150.149 365.958 149.575 365.792 148.945C365.626 148.306 365.297 147.625 364.803 146.903L364.47 146.416C364.1 145.874 363.726 145.44 363.349 145.115C362.974 144.78 362.599 144.554 362.224 144.436C361.847 144.313 361.47 144.298 361.094 144.392C360.723 144.482 360.357 144.677 359.997 144.976L357.723 146.865L356.289 144.768L358.563 142.879C359.256 142.304 359.98 141.909 360.735 141.694C361.492 141.47 362.247 141.425 362.999 141.56C363.753 141.686 364.47 141.984 365.151 142.454C365.833 142.915 366.447 143.545 366.994 144.344L367.316 144.816C367.859 145.611 368.239 146.435 368.457 147.29C368.679 148.14 368.743 148.98 368.65 149.81C368.557 150.639 368.312 151.424 367.917 152.166C367.522 152.897 366.983 153.548 366.3 154.115ZM357.742 143.561L365.443 154.826L362.98 156.872L355.278 145.608L357.742 143.561ZM367.05 135.83L374.751 147.096L372.287 149.142L364.586 137.877L367.05 135.83ZM374.228 137.219L375.656 139.308L370.982 143.191L369.553 141.102L374.228 137.219ZM371.423 132.198L372.856 134.295L367.781 138.51L366.348 136.414L371.423 132.198Z" fill="white"/>
</g>
<defs>
<filter id="filter0_d_205_2" x="20.271" y="152.487" width="433.418" height="236.184" filterUnits="userSpaceOnUse" color-interpolation-filters="sRGB">
<feFlood flood-opacity="0" result="BackgroundImageFix"/>
<feColorMatrix in="SourceAlpha" type="matrix" values="0 0 0 0 0 0 0 0 0 0 0 0 0 0 0 0 0 0 127 0" result="hardAlpha"/>
<feOffset dy="4"/>
<feGaussianBlur stdDeviation="10"/>
<feComposite in2="hardAlpha" operator="out"/>
<feColorMatrix type="matrix" values="0 0 0 0 0 0 0 0 0 0 0 0 0 0 0 0 0 0 0.25 0"/>
<feBlend mode="normal" in2="BackgroundImageFix" result="effect1_dropShadow_205_2"/>
<feBlend mode="normal" in="SourceGraphic" in2="effect1_dropShadow_205_2" result="shape"/>
</filter>
<filter id="filter1_d_205_2" x="6.82617" y="115.121" width="433.418" height="236.185" filterUnits="userSpaceOnUse" color-interpolation-filters="sRGB">
<feFlood flood-opacity="0" result="BackgroundImageFix"/>
<feColorMatrix in="SourceAlpha" type="matrix" values="0 0 0 0 0 0 0 0 0 0 0 0 0 0 0 0 0 0 127 0" result="hardAlpha"/>
<feOffset dy="4"/>
<feGaussianBlur stdDeviation="10"/>
<feComposite in2="hardAlpha" operator="out"/>
<feColorMatrix type="matrix" values="0 0 0 0 0 0 0 0 0 0 0 0 0 0 0 0 0 0 0.25 0"/>
<feBlend mode="normal" in2="BackgroundImageFix" result="effect1_dropShadow_205_2"/>
<feBlend mode="normal" in="SourceGraphic" in2="effect1_dropShadow_205_2" result="shape"/>
</filter>
<filter id="filter2_d_205_2" x="-3" y="70" width="433.418" height="236.185" filterUnits="userSpaceOnUse" color-interpolation-filters="sRGB">
<feFlood flood-opacity="0" result="BackgroundImageFix"/>
<feColorMatrix in="SourceAlpha" type="matrix" values="0 0 0 0 0 0 0 0 0 0 0 0 0 0 0 0 0 0 127 0" result="hardAlpha"/>
<feOffset dy="4"/>
<feGaussianBlur stdDeviation="10"/>
<feComposite in2="hardAlpha" operator="out"/>
<feColorMatrix type="matrix" values="0 0 0 0 0 0 0 0 0 0 0 0 0 0 0 0 0 0 0.25 0"/>
<feBlend mode="normal" in2="BackgroundImageFix" result="effect1_dropShadow_205_2"/>
<feBlend mode="normal" in="SourceGraphic" in2="effect1_dropShadow_205_2" result="shape"/>
</filter>
<clipPath id="clip0_205_2">
<rect width="450" height="450" fill="white"/>
</clipPath>
</defs>
</svg>
